<?xml version="1.0" encoding="UTF-8" standalone="no"?>
<!-- Created with Inkscape (http://www.inkscape.org/) -->

<svg
   xmlns:dc="http://purl.org/dc/elements/1.1/"
   xmlns:cc="http://creativecommons.org/ns#"
   xmlns:rdf="http://www.w3.org/1999/02/22-rdf-syntax-ns#"
   xmlns:svg="http://www.w3.org/2000/svg"
   xmlns="http://www.w3.org/2000/svg"
   version="1.1"
   width="1000"
   height="600"
   id="svg2">
  <defs
     id="defs4" />
  <metadata
     id="metadata7">
    <rdf:RDF>
      <cc:Work
         rdf:about="">
        <dc:format>image/svg+xml</dc:format>
        <dc:type
           rdf:resource="http://purl.org/dc/dcmitype/StillImage" />
        <dc:title></dc:title>
      </cc:Work>
    </rdf:RDF>
  </metadata>
  <g
     transform="translate(0,-452.35902)"
     id="layer1">
    <path
       d="m 175.89956,1009.7023 c -1.05481,-1.341 -22.76322,-48.25354 -48.24091,-104.25008 C 102.18096,849.45569 79.273831,799.27073 76.753911,793.93007 l -4.58168,-9.71028 -15.31057,11.46028 c -16.082094,12.03779 -19.925534,13.69041 -22.154244,9.52602 -1.748681,-3.26743 -1.172781,-5.54308 2.21481,-8.75176 3.85501,-3.6514 52.388984,-40.51522 55.613004,-42.24066 1.22618,-0.65623 3.66,-1.05368 5.40849,-0.88323 2.507589,0.24445 3.638879,1.13228 5.355929,4.20332 1.19726,2.14138 22.09412,47.92888 46.43744,101.75 24.34333,53.82112 44.54261,97.8566 44.88728,97.8566 0.34467,0 49.12799,-100.68751 108.40739,-223.75001 77.25736,-160.38429 108.75587,-224.812 111.22405,-227.5 l 3.44334,-3.75 136.48654,0 387.00437,0 0,11 0,11 -381.99478,0 -131.47694,0 -1.40669,2.25 c -0.77368,1.2375 -53.31245,109.8 -116.75283,241.25 -69.05618,143.08607 -116.427,240.10365 -118.03945,241.75005 -2.29246,2.3407 -3.51249,2.75 -8.19764,2.75 -4.64298,0 -5.80446,-0.3815 -7.42217,-2.4381 z"
       id="path3066"
       style="fill:#000000" />
    <path
       d="m 651.59758,980.59256 c -5.72092,-1.6625 -22.10356,-3.1922 -36.40585,-3.3992 -25.55475,-0.37 -34.06691,-5.0966 -17.67844,-9.8167 13.62594,-3.9244 18.10464,-16.9246 18.42006,-53.46678 0.3441,-39.87249 -1.74356,-43.13145 -44.66488,-69.72395 l -24.16005,-14.96872 -13.28599,7.28952 c -10.38207,5.69624 -18.3458,6.88301 -36.43576,5.42959 -21.42976,-1.72173 -23.67818,-1.1282 -30.2608,7.98839 -8.90509,12.33307 -18.07818,12.43725 -36.04382,0.40928 -7.75428,-5.19146 -18.34982,-9.43903 -23.54566,-9.43903 -12.98291,0 -19.41982,-12.52001 -16.22956,-31.56706 1.43971,-8.59545 3.95696,-27.86213 5.59389,-42.81482 1.63698,-14.95272 5.19751,-29.20135 7.91236,-31.66365 2.71482,-2.46229 13.01249,-4.41571 22.88368,-4.34081 26.49052,0.20083 37.20788,-7.35533 36.03421,-25.40565 -0.52256,-8.03652 1.20068,-16.96353 3.82942,-19.83783 2.65481,-2.90277 4.46497,-15.52334 4.07201,-28.38968 -0.83091,-27.20426 5.72742,-36.31485 31.10912,-43.21561 12.58736,-3.42221 17.59261,-7.39851 22.36774,-17.76924 3.38339,-7.34822 8.41941,-14.67064 11.1911,-16.27193 8.52728,-4.92664 70.53428,1.23347 90.3332,8.97415 15.43467,6.03447 21.64602,6.64465 35.3657,3.47414 56.03992,-12.95025 65.59335,-12.56572 91.53474,3.6842 9.15349,5.73384 22.74324,11.55465 30.19949,12.93517 7.45621,1.38056 15.48103,5.77284 17.83289,9.76063 2.3519,3.98782 11.1612,9.86112 19.57633,13.05177 20.3982,7.73412 30.16706,16.24397 30.16706,26.27905 0,9.82664 8.31656,17.03639 32.24519,27.95391 16.57313,7.56154 24.08116,19.1701 12.48203,19.29903 -2.86048,0.0303 -7.84865,1.57878 -11.08487,3.43771 -4.8094,2.76259 -3.85953,5.56325 5.20083,15.33433 13.16316,14.19579 14.24659,27.81532 2.79186,35.09603 -10.97044,6.97283 -33.1422,36.90732 -33.23799,44.87513 -0.14568,12.12003 -5.20809,18.24297 -15.08321,18.24297 -5.47605,0 -9.95654,1.57767 -9.95654,3.50592 0,1.92827 -2.90625,6.14325 -6.45837,9.36664 -7.27644,6.60299 -44.5647,7.54639 -57.3888,1.4519 -14.46038,-6.872 -54.21051,10.3506 -77.68571,33.65907 l -20.73325,20.58604 0.0612,28.9567 c 0.0374,18.29711 2.27612,32.43139 6.07782,38.39579 11.19365,17.5613 11.72671,19.634 5.90897,22.9769 -6.88457,3.9559 -18.5209,3.8414 -32.85132,-0.3232 z m 47.2879,-139.52898 c 3.67503,-8.33478 7.85551,-21.81439 9.28999,-29.95476 2.1687,-12.30729 1.22415,-15.47279 -5.6068,-18.79028 -9.68983,-4.70588 -15.85759,-1.0708 -30.0088,17.68617 -7.67228,10.16943 -8.93491,15.46767 -6.70366,28.12978 5.26583,29.88296 20.54705,31.23813 33.02927,2.92909 z m -85.4662,-27.00951 c -1.74725,-28.06003 -7.96941,-37.34452 -25.02698,-37.34452 -8.91336,0 -9.76664,10.54802 -2.99532,37.02812 6.93198,27.10832 6.96569,27.15729 18.69182,27.15729 l 11.00178,0 z m 131.31641,18.79989 c 13.71952,-5.67253 21.4984,-22.53881 15.26766,-33.10361 -6.12553,-10.38633 -24.01894,-14.39695 -31.98413,-7.16884 -7.0843,6.42865 -18.70552,39.01974 -15.08507,42.30517 3.99537,3.6256 20.69854,2.55797 31.80154,-2.03272 z m -163.9332,-14.13109 c -0.0333,-1.30317 -1.94294,-4.91793 -4.23975,-8.03282 -3.6186,-4.90746 -4.98913,-4.69681 -10.26747,1.57807 -7.77258,9.23997 -0.40984,20.10649 8.88195,13.10866 3.12895,-2.35647 5.6603,-5.35071 5.62527,-6.65391 z m 90.64495,-22.42732 c 0.90581,-2.46592 -1.31752,-4.48355 -4.9408,-4.48355 -3.62322,0 -6.58771,2.69014 -6.58771,5.97805 0,6.66746 8.95692,5.50631 11.52851,-1.4945 z"
       id="path3226"
       style="fill:#000000" />
  </g>
  <g
     transform="translate(0,-452.35902)"
     id="layer2" />
</svg>
